<svg id="Capa_1" data-name="Capa 1" xmlns="http://www.w3.org/2000/svg" viewBox="0 0 383.69 383.64"><title>Favicon Elipse</title><path d="M112.08,299.43c-7.33,0-13.17-2.05-17.19-6.16-9.9-10.1-7.76-31.88,5.85-59.75,26.57-54.39,88.9-117.5,139-140.67,22.86-10.59,40.29-11.46,49.1-2.47,9.89,10.1,7.76,31.87-5.85,59.74C256.38,204.51,194,267.62,144,290.8,131.59,296.54,120.78,299.43,112.08,299.43ZM239.94,93.36l.23.51C190.32,117,128.22,179.82,101.75,234c-13.39,27.41-15.6,48.72-6.06,58.46,8.45,8.62,25.43,7.66,47.83-2.7,49.85-23.09,112-86,138.42-140.15,13.39-27.42,15.6-48.73,6.06-58.46-8.45-8.63-25.44-7.67-47.83,2.7Z" fill="#00194e"/><path d="M106.81,300.89c-8.57,0-15.22-2.46-19.53-7.38C77.2,282,80.9,258.28,97.44,228.39,128.65,172,196.25,109.59,248.13,89.23c22.79-8.94,39.94-8.62,48.28.9,10.08,11.5,6.38,35.24-10.16,65.12C255,211.63,187.44,274.05,135.56,294.41,124.54,298.73,114.84,300.89,106.81,300.89Zm170.07-217c-7.86,0-17.43,2.14-28.34,6.42-51.68,20.27-119,82.48-150.11,138.66-16.3,29.44-20.06,52.71-10.31,63.83,8,9.14,24.71,9.35,47,.59,51.67-20.27,119-82.47,150.11-138.65,16.3-29.45,20.05-52.71,10.3-63.84C291.47,86.2,285.11,83.86,276.88,83.86Z" fill="#00194e"/><path d="M102,302c-10.09,0-17.75-3-22.35-8.87-10.21-13.06-4.75-38.8,15-70.62,36-58.08,108.78-119.27,162.25-136.4,22.58-7.23,39.34-5.68,47.2,4.38,10.2,13.07,4.75,38.81-15,70.62-36,58.09-108.78,119.28-162.25,136.4C117.49,300.52,109.13,302,102,302ZM281.71,82.75c-7,0-15.26,1.47-24.52,4.44-53.25,17.06-125.75,78-161.63,135.93-19.45,31.38-24.93,56.66-15,69.33,7.54,9.66,23.87,11.08,46,4,53.25-17.05,125.75-78,161.63-135.92,19.45-31.39,24.93-56.66,15-69.34C298.78,85.58,291.43,82.75,281.71,82.75Z" fill="#00194e"/><path d="M97.48,302.86c-11.87,0-20.52-3.62-25.47-10.77-10.23-14.81-2.85-42.58,20.27-76.19C133.2,156.42,211.05,97.06,265.8,83.57c22.56-5.55,38.42-2.79,45.87,8,10.24,14.81,2.85,42.58-20.27,76.19-40.92,59.49-118.76,118.85-173.51,132.33A86.31,86.31,0,0,1,97.48,302.86Zm188.74-221a85.31,85.31,0,0,0-20.15,2.77C211.54,98.09,134,157.25,93.21,216.54,70.37,249.74,63,277.05,72.94,291.45c7.16,10.36,22.61,13,44.68,7.53,54.52-13.43,132.07-72.59,172.86-131.88,22.84-33.2,30.23-60.5,20.27-74.91C306,85.36,297.69,81.9,286.22,81.9Z" fill="#00194e"/><path d="M93.94,303.33c-14.2,0-24.27-4.41-29.49-13-10.15-16.75-.63-46.56,26.1-81.77C136.5,148,219.22,91.08,275,81.66l.09.56-.09-.56c22.08-3.73,37.4.32,44.29,11.69,10.15,16.76.63,46.56-26.1,81.78C247.19,235.66,164.47,292.57,108.74,302A89.56,89.56,0,0,1,93.94,303.33ZM289.76,81.44a88.43,88.43,0,0,0-14.62,1.33c-55.49,9.37-137.89,66.09-183.7,126.42-26,34.32-35.78,64.42-26,80.52,6.63,11,21.55,14.81,43.14,11.16C164,291.5,246.44,234.79,292.24,174.45c26.05-34.32,35.79-64.42,26-80.51C313.27,85.66,303.53,81.44,289.76,81.44Z" fill="#00194e"/><path d="M91.41,303.55c-17.14,0-29-5.42-34.42-15.89C47.26,269,59.4,236.39,89.46,200.35c51.06-61.19,138.43-115,194.77-119.89C305.73,78.58,320.42,84,326.7,96c9.73,18.63-2.41,51.27-32.48,87.31-51.05,61.2-138.42,115-194.76,119.89C96.66,303.43,94,303.55,91.41,303.55ZM284.28,81l.05.56c-56.09,4.89-143.12,58.5-194,119.49C60.56,236.75,48.47,268.93,58,287.14c6.06,11.6,20.37,16.76,41.38,14.92,56.08-4.89,143.11-58.49,194-119.49,29.77-35.68,41.86-67.85,32.35-86.07-6.06-11.59-20.37-16.75-41.38-14.92Z" fill="#00194e"/><path d="M90.13,303.61h0c-20.83,0-34.8-6.75-40.42-19.49-9.23-21,5.5-55.63,39.41-92.71C145.28,130,237,80,293.56,80h0c20.83,0,34.8,6.74,40.41,19.49,9.24,21-5.49,55.63-39.41,92.7C238.41,253.65,146.7,303.6,90.13,303.61ZM293.56,81.16c-56.29,0-147.63,49.79-203.64,111-33.6,36.74-48.26,70.94-39.21,91.5,5.42,12.3,19,18.81,39.39,18.81h0c56.29,0,147.63-49.79,203.63-111C327.37,154.74,342,120.53,333,100c-5.41-12.3-19-18.81-39.38-18.82Z" fill="#00194e"/><path d="M90.19,303.61q-4.89,0-9.45-.43c-20.09-1.92-33.27-10.09-38.13-23.63C34.16,256,51.69,219.43,89.5,181.7,150.84,120.5,246.59,75.1,303,80.47c20.08,1.91,33.27,10.08,38.13,23.63,8.45,23.54-9.08,60.12-46.9,97.85C236.16,259.84,147.33,303.61,90.19,303.61ZM293.45,81.16c-56.84,0-145.31,43.63-203.15,101.33-37.5,37.42-54.94,73.56-46.64,96.68,4.71,13.1,17.56,21,37.19,22.89,56.05,5.35,151.41-39.92,212.54-100.91,37.5-37.41,54.93-73.55,46.63-96.67-4.7-13.11-17.56-21-37.18-22.89Q298.31,81.16,293.45,81.16Z" fill="#00194e"/><path d="M91.83,303.69a104.66,104.66,0,0,1-20.38-1.86c-19.3-3.87-31.62-13.56-35.62-28-7.29-26.31,13.24-64.67,54.93-102.6,66.44-60.46,165.8-100.56,221.48-89.4,19.3,3.87,31.62,13.55,35.62,28,7.29,26.31-13.24,64.66-54.93,102.6C234,266.07,149.11,303.69,91.83,303.69Zm200-222.62c-57,0-141.51,37.51-200.28,91-41.36,37.64-61.77,75.57-54.6,101.47,3.88,14,15.9,23.42,34.76,27.2a103.19,103.19,0,0,0,20.23,1.85c57,0,141.51-37.5,200.27-91C333.54,174,354,136,346.78,110.13c-3.89-14-15.91-23.43-34.76-27.21A103.19,103.19,0,0,0,291.79,81.07Z" fill="#00194e"/><path d="M95.32,304c-12.22,0-23.37-1.47-33-4.54-18.49-5.89-29.86-17.2-32.87-32.71C23.77,237.52,47.5,197.6,92.92,160c71.46-59.18,174-93.19,228.46-75.83,18.49,5.89,29.85,17.21,32.86,32.72,5.68,29.25-18.05,69.16-63.47,106.77C232,272.36,152.12,304,95.32,304Zm193-223.29c-56.5,0-136,31.58-194.65,80.13C48.54,198.2,25,237.71,30.55,266.55c2.92,15.09,14,26.1,32.1,31.86,54.19,17.26,156.2-16.66,227.4-75.62,45.1-37.35,68.68-76.86,63.09-105.7C350.21,102,339.11,91,321,85.23,311.47,82.19,300.41,80.73,288.29,80.73Z" fill="#00194e"/><path d="M100.88,304.8c-18.2,0-34.44-2.8-47.48-8.72-17.67-8-28-21.12-29.81-37.88C20.07,225.92,47.15,184.74,96.05,148,172.41,90.72,277.49,63.6,330.29,87.57c17.67,8,28,21.12,29.8,37.87,3.53,32.28-23.56,73.46-72.46,110.17C230.14,278.76,156.37,304.8,100.88,304.8ZM282.74,79.94c-55.2,0-128.69,26-186,69-48.58,36.46-75.5,77.26-72,109.14,1.79,16.34,11.87,29.12,29.15,37,52.47,23.82,157-3.25,233.1-60.34,48.58-36.46,75.5-77.27,72-109.15-1.79-16.33-11.87-29.12-29.16-37C316.89,82.72,300.79,79.94,282.74,79.94Z" fill="#00194e"/><path d="M108.63,306.28c-25.31,0-47.5-4.74-63.81-14.74-16.84-10.32-26-25.41-26.37-43.63-.79-35.29,29.78-77.36,81.77-112.52C181.29,80.56,288.35,61.14,338.87,92.1c16.84,10.33,26,25.41,26.37,43.64.79,35.29-29.78,77.35-81.77,112.51C228.57,285.39,161.74,306.28,108.63,306.28ZM275,78.45c-52.85,0-119.43,20.85-174.17,57.87-51.68,35-82.06,76.65-81.28,111.56.4,17.82,9.34,32.59,25.84,42.7,50.18,30.76,156.69,11.35,237.43-43.26,51.67-34.95,82.06-76.65,81.27-111.56-.4-17.82-9.33-32.59-25.83-42.7C322.12,83.16,300.12,78.45,275,78.45Z" fill="#00194e"/><path d="M118.44,308.73c-33.48,0-62.56-7.45-81.77-22.91-16-12.87-23.75-30.22-22.42-50.18,2.56-38.13,36.66-80.58,91.22-113.55C191,70.39,299.38,59.5,347,97.82c16,12.88,23.75,30.23,22.41,50.18-2.55,38.13-36.65,80.58-91.21,113.55C227.17,292.41,168,308.73,118.44,308.73ZM265.25,76c-49.32,0-108.29,16.28-159.2,47C51.8,155.83,17.91,198,15.37,235.72c-1.31,19.57,6.3,36.59,22,49.23,47.3,38,155.09,27.12,240.27-24.36,54.24-32.78,88.14-74.9,90.67-112.66,1.32-19.58-6.29-36.6-22-49.23C327.28,83.39,298.45,76,265.25,76Z" fill="#00194e"/><path d="M129.89,312.39c-42.52,0-79.36-11.13-100.84-33.53C13.94,263.09,7.8,243.15,11.3,221.19c6.48-40.62,44.07-82.86,100.56-113,89.74-47.89,198.66-49.41,242.78-3.4,15.11,15.76,21.25,35.7,17.75,57.67-6.48,40.62-44.07,82.86-100.56,113C225.78,300,174.68,312.39,129.89,312.39Zm124-240c-44.61,0-95.53,12.34-141.45,36.84-56.18,30-93.56,71.91-100,112.18C9,243,15,262.58,29.86,278.08c43.8,45.67,152.11,44.05,241.44-3.61,56.18-30,93.55-71.92,100-112.19,3.44-21.6-2.59-41.21-17.45-56.71C332.54,83.37,296,72.34,253.84,72.34Z" fill="#00194e"/><path d="M142.23,317.52c-52.07,0-97.33-16.06-120.16-46.92C8,251.51,3.76,228.6,10,204.35c10.87-42.54,51.79-83.89,109.48-110.62C213,50.38,321.67,59,361.62,113.05h0c14.12,19.09,18.3,42,12.11,66.24-10.87,42.55-51.79,83.9-109.48,110.62C224.15,308.49,181.27,317.51,142.23,317.52ZM241.52,67.23c-38.89,0-81.62,9-121.61,27.52C62.53,121.34,21.83,162.41,11.05,204.63c-6.11,23.91-2,46.49,11.92,65.3,39.65,53.6,147.67,62.11,240.81,19,57.38-26.58,98.08-67.66,108.86-109.88,6.11-23.91,2-46.48-11.93-65.29C338.09,83.13,293.2,67.23,241.52,67.23Z" fill="#00194e"/><path d="M154.58,324.26c-61.78,0-115.77-22.5-138.74-63.27-12.93-22.94-14.73-49.21-5.21-76C26.18,141.32,70.15,101.61,128.25,78.8c97-38.09,204.51-18.42,239.6,43.85,12.93,22.94,14.73,49.21,5.21,76C357.51,242.33,313.54,282,255.44,304.84A278.28,278.28,0,0,1,154.58,324.26ZM229.17,60.49A277.3,277.3,0,0,0,128.66,79.85C70.86,102.54,27.13,142,11.69,185.4c-9.41,26.44-7.64,52.39,5.13,75C51.64,322.24,158.5,341.69,255,303.79c57.8-22.68,101.53-62.14,117-105.55,9.41-26.44,7.63-52.39-5.13-75h0C344.1,82.79,290.52,60.49,229.17,60.49Z" fill="#00194e"/><path d="M166,332.73C94.71,332.73,32.15,302,10.47,250-1,222.6.15,192.59,13.72,163.22,34,119.27,80.6,82,138.33,63.47c100-32.06,205.36-.58,234.89,70.16,11.44,27.41,10.31,57.42-3.25,86.79-20.3,44-66.88,81.25-124.61,99.76A261,261,0,0,1,166,332.73ZM217.71,52a259.72,259.72,0,0,0-79,12.51C81.24,83,34.91,120,14.74,163.69,1.31,192.77.19,222.47,11.51,249.58c21.5,51.52,83.63,82,154.46,82A259.83,259.83,0,0,0,245,319.1C302.45,300.69,348.78,263.63,369,220c13.43-29.07,14.54-58.77,3.23-85.89C350.68,82.54,288.55,52,217.71,52Z" fill="#00194e"/><path d="M175.84,342.94c-80.47,0-150.95-41.09-169.75-105.31C-3.44,205.08,1.23,171,19.6,139.08,44.83,95.24,92.25,62,149.71,47.82,252.13,22.58,354.36,66.63,377.6,146c9.53,32.55,4.86,66.63-13.51,98.55C338.86,288.4,291.44,321.66,234,335.82A242.88,242.88,0,0,1,175.84,342.94Zm32-301.12A242.26,242.26,0,0,0,150,48.91C92.82,63,45.65,96.07,20.58,139.64,2.36,171.29-2.28,205.06,7.17,237.31,25.82,301,95.85,341.82,175.82,341.82a241.81,241.81,0,0,0,57.89-7.09C290.87,320.65,338,287.58,363.11,244c18.22-31.65,22.85-65.43,13.41-97.68C357.86,82.6,287.83,41.82,207.87,41.82Z" fill="#00194e"/><path d="M183.56,354.88c-89.21,0-166.51-53.67-180.76-131.07C-4.17,186,5,146.59,28.57,112.89,58,70.87,106.76,41.37,162.41,32,266.65,14.32,364.66,71.69,380.89,159.84c7,37.83-2.19,77.22-25.77,110.92-29.41,42-78.19,71.52-133.85,80.93A226.06,226.06,0,0,1,183.56,354.88Zm16.57-325a225,225,0,0,0-37.53,3.17c-55.36,9.36-103.87,38.7-133.11,80.47C6.08,147-3,186.07,3.9,223.6c14.16,76.86,91,130.15,179.65,130.15a225.07,225.07,0,0,0,37.54-3.17c55.35-9.36,103.87-38.69,133.11-80.47,23.41-33.45,32.49-72.54,25.58-110.07h0C365.63,83.18,288.8,29.89,200.13,29.89Z" fill="#00194e"/><path d="M188.93,368.47C91.32,368.48,8.72,299.85.73,208.54-7.75,111.58,71.08,25.19,176.46,16c51-4.46,100.62,9.63,139.62,39.67S378.85,128.12,383,175.1,371.05,268,337.85,304.36s-79.58,58.85-130.62,63.31C201.09,368.21,195,368.47,188.93,368.47Zm6-352.18q-9.15,0-18.4.8C71.79,26.26-6.58,112.1,1.85,208.44c7.94,90.72,90.06,158.9,187.08,158.91q9,0,18.2-.8C257.89,362.11,304,339.76,337,303.6s48.9-81.74,44.82-128.4S354.16,86.39,315.4,56.53C281.33,30.29,239.13,16.29,195,16.29Z" fill="#00194e"/><path d="M191.84,383.64C86.06,383.64,0,297.59,0,191.82S86.06,0,191.84,0,383.69,86.05,383.69,191.82,297.63,383.64,191.84,383.64Zm0-382.52C86.68,1.12,1.12,86.67,1.12,191.82s85.56,190.7,190.72,190.7S382.56,297,382.56,191.82,297,1.12,191.84,1.12Z" fill="#00194e"/></svg>